<?xml version="1.0" encoding="UTF-8"?>
<svg version="1.1" xmlns="http://www.w3.org/2000/svg" width="32" height="32">
<path d="M0 0 C10.56 0 21.12 0 32 0 C32 10.56 32 21.12 32 32 C21.44 32 10.88 32 0 32 C0 21.44 0 10.88 0 0 Z " fill="#226CD2" transform="translate(0,0)"/>
<path d="M0 0 C1.27617187 0.02320313 2.55234375 0.04640625 3.8671875 0.0703125 C5.78917969 0.09738281 5.78917969 0.09738281 7.75 0.125 C9.23113281 0.15980469 9.23113281 0.15980469 10.7421875 0.1953125 C10.0821875 1.5153125 9.4221875 2.8353125 8.7421875 4.1953125 C8.4121875 3.5353125 8.0821875 2.8753125 7.7421875 2.1953125 C3.2871875 2.6903125 3.2871875 2.6903125 -1.2578125 3.1953125 C-1.5878125 4.1853125 -1.9178125 5.1753125 -2.2578125 6.1953125 C-1.35289063 6.14310547 -1.35289063 6.14310547 -0.4296875 6.08984375 C6.00547674 5.87187851 6.00547674 5.87187851 9.3046875 7.3203125 C10.7421875 9.1953125 10.7421875 9.1953125 11.1796875 12.1953125 C10.7421875 15.1953125 10.7421875 15.1953125 9.6640625 16.87109375 C6.70185967 18.91212375 4.09253063 18.48018433 0.5546875 18.3828125 C-1.35376953 18.34220703 -1.35376953 18.34220703 -3.30078125 18.30078125 C-4.27660156 18.26597656 -5.25242187 18.23117188 -6.2578125 18.1953125 C-4.9378125 16.8753125 -3.6178125 15.5553125 -2.2578125 14.1953125 C-2.2578125 14.8553125 -2.2578125 15.5153125 -2.2578125 16.1953125 C2.1971875 15.7003125 2.1971875 15.7003125 6.7421875 15.1953125 C7.0721875 14.2053125 7.4021875 13.2153125 7.7421875 12.1953125 C7.05511719 12.23011719 6.36804687 12.26492187 5.66015625 12.30078125 C4.75910156 12.32785156 3.85804687 12.35492188 2.9296875 12.3828125 C2.03636719 12.41761719 1.14304687 12.45242187 0.22265625 12.48828125 C-2.2578125 12.1953125 -2.2578125 12.1953125 -4.0625 10.90625 C-6.0272935 8.09389852 -5.55858694 5.50383132 -5.2578125 2.1953125 C-3.2578125 0.1953125 -3.2578125 0.1953125 0 0 Z " fill="#D1E0F6" transform="translate(13.2578125,6.8046875)"/>
<path d="M0 0 C1.62463842 -0.05395478 3.24978541 -0.09277195 4.875 -0.125 C6.23238281 -0.15980469 6.23238281 -0.15980469 7.6171875 -0.1953125 C10 0 10 0 12 2 C12.54697897 7.14160234 12.54697897 7.14160234 10.9296875 9.6796875 C7.96025456 11.71140478 5.3521859 11.28492255 1.8125 11.1875 C0.54019531 11.16042969 -0.73210938 11.13335937 -2.04296875 11.10546875 C-3.01878906 11.07066406 -3.99460937 11.03585938 -5 11 C-3.68 9.68 -2.36 8.36 -1 7 C-1 7.66 -1 8.32 -1 9 C3.455 8.505 3.455 8.505 8 8 C8.33 6.35 8.66 4.7 9 3 C4.545 2.01 4.545 2.01 0 1 C0 0.67 0 0.34 0 0 Z " fill="#F2F6FC" transform="translate(12,14)"/>
<path d="M0 0 C3.3 0 6.6 0 10 0 C10 0.99 10 1.98 10 3 C7.03 3 4.06 3 1 3 C0.67 2.01 0.34 1.02 0 0 Z " fill="#1765D0" transform="translate(11,19)"/>
<path d="M0 0 C2.97 0 5.94 0 9 0 C9.33 0.99 9.66 1.98 10 3 C6.7 3 3.4 3 0 3 C0 2.01 0 1.02 0 0 Z " fill="#1865D1" transform="translate(11,10)"/>
</svg>
